<svg xmlns="http://www.w3.org/2000/svg" viewBox="0 0 156.74 178.68"><defs><style>.cls-1{opacity:0.6;}.cls-2{fill:#1a5276;stroke:#000;stroke-miterlimit:10;}.cls-3{fill:#0d293b;}.cls-4{fill:#143e59;}</style></defs><g id="Capa_2" data-name="Capa 2"><g id="Capa_1-2" data-name="Capa 1"><g class="cls-1"><path class="cls-2" d="M115.23,84.53v32.19s-.28,6-6,6v3.57s8.52-.82,9.35-8.52V84.53Z"/><path class="cls-2" d="M97.49,87.7V84.12s-11.84.54-11.84,12.26V97c0,1.15.2,6.91,6.61,11.35,3.51,2.43,4.5,5.26,4.6,7.51a6.76,6.76,0,0,1-4,6.55c-2,.86-4.64.93-7.53-2.24l-2.47,2.76s4.53,4.86,10.58,2.93a10.2,10.2,0,0,0,6.92-9.07c.21-2.83-.06-6.38-3.34-9.13-.91-.77-1.77-1.44-2.75-2.2a15.8,15.8,0,0,1-4.81-6.74C89,96.5,88.41,88.8,97.49,87.7Z"/><path class="cls-2" d="M73.14,87S58.5,76.73,44.85,91.69a14,14,0,0,0-2.52,3.88c-2,4.77-5.37,16.28,5.11,25.42a21.68,21.68,0,0,0,17.63,5.25,19.35,19.35,0,0,0,9.31-4.16V111.35l-12.65-.27v3.57l9.08.28v5.77s-10.73,7.16-21.46-2.47c-8.5-7.63-5.25-17.85-3.54-21.77a11,11,0,0,1,2-3.09c3-3.24,11.44-10.13,23.79-3.2Z"/></g><path class="cls-3" d="M129.39,49.29V171.68H7V49.29H129.39m7-7H0V178.68H136.39V42.29Z"/><path class="cls-3" d="M147.58,9.89V132.28H25.19V9.89H147.58m7-7H18.19V139.28H154.58V2.89Z"/><path class="cls-2" d="M112.34,84.43v32.18s-.27,6-6,6v3.58s8.53-.82,9.35-8.53V84.43Z"/><path class="cls-2" d="M94.6,87.59V84s-11.84.54-11.83,12.26c0,.2,0,.4,0,.6,0,1.15.21,6.91,6.61,11.34,3.52,2.44,4.51,5.26,4.61,7.51a6.8,6.8,0,0,1-4,6.56c-2,.86-4.64.93-7.53-2.24L80,122.8s4.53,4.87,10.58,2.94a10.22,10.22,0,0,0,6.93-9.07c.2-2.83-.06-6.38-3.34-9.13-.91-.77-1.78-1.44-2.75-2.2a15.75,15.75,0,0,1-4.82-6.74C86.07,96.4,85.52,88.69,94.6,87.59Z"/><path class="cls-2" d="M70.26,86.91S55.61,76.63,42,91.59a13.92,13.92,0,0,0-2.51,3.87c-2.06,4.78-5.38,16.28,5.1,25.42a21.65,21.65,0,0,0,17.63,5.25A19.5,19.5,0,0,0,71.5,122V111.25L58.84,111v3.58l9.08.28v5.77s-10.73,7.15-21.46-2.47c-8.5-7.63-5.25-17.86-3.54-21.77a11,11,0,0,1,2-3.1C48,90,56.4,83.14,68.74,90.07Z"/><g class="cls-1"><path class="cls-4" d="M131.55,46.4V168.79H9.16V46.4H131.55m7-7H2.16V175.79H138.55V39.4Z"/><path class="cls-4" d="M149.74,7V129.39H27.35V7H149.74m7-7H20.35V136.39H156.74V0Z"/></g></g></g></svg>