<svg xmlns="http://www.w3.org/2000/svg" viewBox="0 0 486 333.26"><defs><style>.cls-1{opacity:0.6;}.cls-2,.cls-3,.cls-4{fill:#1a5276;}.cls-2,.cls-4{stroke:#000;stroke-miterlimit:10;}.cls-4{font-size:36px;font-family:BellMTBold, Bell MT;}.cls-5{letter-spacing:-0.06em;}.cls-6{letter-spacing:0.73em;}.cls-7{letter-spacing:-0.13em;}.cls-8{fill:#2471a3;}</style></defs><g id="Capa_2" data-name="Capa 2"><g id="Capa_2-2" data-name="Capa 2"><g class="cls-1"><path class="cls-2" d="M270.07,111.56V154s-.36,8-8,8v4.72s11.26-1.09,12.35-11.25V111.56Z"/><path class="cls-2" d="M246.66,115.74V111S231,111.73,231,127.2V128c0,1.52.26,9.12,8.72,15,4.63,3.21,5.94,6.94,6.07,9.91a8.94,8.94,0,0,1-5.21,8.65c-2.59,1.14-6.13,1.23-9.94-3l-3.26,3.63s6,6.43,14,3.87a13.47,13.47,0,0,0,9.14-12c.27-3.73-.08-8.42-4.41-12-1.2-1-2.34-1.9-3.63-2.9a20.7,20.7,0,0,1-6.35-8.89C235.4,127.35,234.68,117.19,246.66,115.74Z"/><path class="cls-2" d="M214.53,114.83S195.2,101.26,177.19,121a18.34,18.34,0,0,0-3.32,5.11c-2.72,6.3-7.09,21.49,6.74,33.55a28.56,28.56,0,0,0,23.26,6.93,25.65,25.65,0,0,0,12.29-5.49V147l-16.7-.37v4.72l12,.36v7.63s-14.15,9.44-28.31-3.27c-11.22-10.07-6.93-23.56-4.67-28.72a14.23,14.23,0,0,1,2.67-4.09c4-4.27,15.11-13.36,31.4-4.22Z"/></g><path class="cls-3" d="M291,62.81v166H125v-166H291m7-7H118v180H298v-180Z"/><path class="cls-3" d="M315,10.81v166H149v-166H315m7-7H142v180H322V3.81Z"/><path class="cls-2" d="M266.26,111.43V153.9s-.36,8-8,8v4.72s11.26-1.09,12.35-11.25V111.43Z"/><path class="cls-2" d="M242.85,115.6v-4.72s-15.63.71-15.62,16.18v.79c0,1.52.26,9.12,8.72,15,4.63,3.21,5.94,6.94,6.07,9.91a9,9,0,0,1-5.21,8.65c-2.59,1.13-6.12,1.22-9.94-2.95l-3.26,3.63s6,6.42,14,3.87a13.49,13.49,0,0,0,9.14-12c.27-3.73-.08-8.42-4.41-12.05-1.2-1-2.34-1.9-3.63-2.91a20.65,20.65,0,0,1-6.35-8.89C231.59,127.22,230.87,117.05,242.85,115.6Z"/><path class="cls-2" d="M210.72,114.69s-19.33-13.56-37.34,6.18a18.39,18.39,0,0,0-3.32,5.12c-2.72,6.29-7.09,21.48,6.74,33.54a28.57,28.57,0,0,0,23.27,6.93A25.64,25.64,0,0,0,212.35,161V146.82l-16.69-.36v4.72l12,.36v7.62s-14.15,9.44-28.31-3.27c-11.22-10.07-6.93-23.56-4.67-28.72a14.37,14.37,0,0,1,2.67-4.09c4-4.27,15.11-13.36,31.4-4.21Z"/><text class="cls-4" transform="translate(1 270.64)">G<tspan class="cls-5" x="29.25" y="0">R</tspan><tspan x="52.35" y="0">UPO SIGMA JUDICIAL </tspan><tspan class="cls-6" x="0" y="43.2" xml:space="preserve">			</tspan><tspan x="108" y="43.2" xml:space="preserve">  L</tspan><tspan class="cls-7" x="149.63" y="43.2">A</tspan><tspan x="169.89" y="43.2">W FIRM</tspan></text><g class="cls-1"><path class="cls-8" d="M293.85,59V225h-166V59h166m7-7h-180V232h180V52Z"/><path class="cls-8" d="M317.85,7V173h-166V7h166m7-7h-180V180h180V0Z"/></g></g></g></svg>